<svg width="401" height="203" viewBox="0 0 401 203" fill="none" xmlns="http://www.w3.org/2000/svg">
<mask id="mask0_26_40" style="mask-type:alpha" maskUnits="userSpaceOnUse" x="0" y="0" width="401" height="203">
<rect width="401" height="203" fill="#D9D9D9"/>
</mask>
<g mask="url(#mask0_26_40)">
<path d="M230.712 13.4522C224.978 16.7855 222.178 30.9189 226.578 35.1855C229.645 38.3855 230.845 37.8522 233.912 31.5855C235.512 28.5189 238.178 24.1189 239.912 21.7189C241.645 19.4522 243.112 17.1855 243.112 16.6522C243.112 15.9855 234.712 11.8522 233.512 11.9855C233.245 11.9855 232.045 12.6522 230.712 13.4522Z" fill="black"/>
<path d="M201.778 19.9851C194.978 29.5851 179.245 68.9184 175.912 84.6518C174.578 90.6518 165.512 100.652 162.578 99.5851C160.445 98.7851 160.178 97.5851 160.978 91.7184C162.845 77.8518 176.712 41.3184 184.712 29.3184L188.712 23.4518L185.778 21.0518C179.378 15.8518 175.645 18.9184 167.512 35.8518C160.978 49.5851 154.178 67.7184 151.112 79.8518C147.245 94.5184 139.245 104.652 134.845 100.252C131.778 97.1851 139.112 71.9851 145.645 62.7851C148.178 59.3184 148.312 58.6518 146.445 56.7851C145.378 55.7184 143.112 54.3851 141.512 53.8518C137.378 52.6518 132.045 59.3184 127.245 71.9851C118.845 93.7184 118.978 105.452 127.645 110.785C133.778 114.518 136.312 113.985 142.445 107.452L148.045 101.718L151.645 106.118C156.845 112.652 161.778 112.385 169.112 104.918L174.712 99.3184L178.712 103.585C184.445 109.718 188.445 109.452 196.312 101.985L202.712 95.9851L204.845 99.1851C209.645 106.385 218.845 105.718 225.245 97.5851L228.178 94.1184L231.645 98.2518C233.512 100.518 236.712 102.785 238.578 103.185C244.578 104.785 248.178 100.918 256.045 84.5184C259.912 76.1184 263.512 69.3184 263.912 69.3184C264.312 69.3184 264.178 72.5184 263.778 76.3851C262.178 88.6518 268.445 98.1184 275.512 94.5184C277.112 93.7184 279.512 92.1184 280.845 90.9184C282.312 89.5851 283.112 89.4518 283.112 90.3851C283.112 93.0518 288.312 97.3184 291.645 97.3184C294.312 97.3184 295.245 95.9851 298.312 87.4518C302.312 76.5184 315.778 52.7851 320.312 48.7851C322.978 46.3851 323.112 46.3851 323.112 48.6518C323.112 49.9851 321.245 56.7851 319.112 63.7184C316.845 70.6518 315.112 77.5851 315.378 79.0518C315.912 82.3851 322.312 87.3184 324.978 86.2518C326.045 85.8518 329.645 79.8518 332.845 73.0518C341.912 54.2518 356.445 33.0518 356.445 38.6518C356.445 39.5851 354.312 44.9184 351.778 50.5184C342.978 70.1184 342.712 79.0518 350.845 85.3184C355.378 88.9184 359.112 88.6518 365.512 84.1184C374.178 77.7184 389.645 54.2518 387.912 49.8518C386.712 46.7851 385.245 47.7184 381.912 53.9851C380.178 57.1851 375.512 63.4518 371.512 67.9851C363.645 76.6518 359.112 78.3851 359.112 72.6518C359.112 68.1184 363.645 54.7851 368.578 45.1851C373.378 35.5851 373.378 32.6518 368.978 29.8518C359.112 23.3184 349.512 31.1851 335.112 57.5851C328.978 68.9184 328.445 68.2518 333.112 54.6518C337.112 42.7851 337.112 41.9851 333.778 38.6518C326.845 31.7184 318.578 38.9184 303.778 64.9184C300.445 70.6518 297.778 74.6518 297.778 73.7184C297.778 70.9184 304.578 52.9184 308.178 46.1184L311.645 39.7184L308.578 37.1851C302.045 31.8518 298.845 34.7851 292.045 52.6518C290.045 57.7184 287.512 65.4518 286.445 69.5851C283.912 78.6518 278.578 84.1184 275.378 80.7851C273.778 79.1851 273.778 77.8518 275.778 71.1851C276.978 66.7851 278.578 62.6518 279.245 61.8518C282.178 58.2518 272.312 53.1851 267.512 55.7184C266.045 56.5184 260.845 64.1184 255.912 72.5184C246.045 89.1851 243.512 92.2518 241.912 89.4518C239.112 85.0518 246.978 62.3851 254.712 52.2518C260.978 43.9851 272.445 41.4518 274.445 47.9851C275.645 51.7184 277.512 51.3184 278.578 47.3184C280.712 38.9184 265.245 32.6518 255.378 37.8518C246.445 42.6518 233.912 60.1184 230.312 73.3184C227.245 84.3851 225.912 87.4518 222.445 90.6518C218.578 94.3851 215.112 93.3184 215.112 88.5184C215.112 80.5184 223.512 56.2518 226.978 53.9851C227.778 53.5851 228.445 52.1184 228.445 50.7851C228.445 47.9851 221.645 44.6518 218.445 45.8518C215.512 46.9184 206.445 66.2518 203.778 77.1851C200.712 89.8518 190.445 101.852 188.045 95.5851C185.378 88.3851 202.312 39.4518 212.578 25.0518L215.512 20.9184L212.578 18.5184C208.178 14.9184 205.112 15.4518 201.778 19.9851Z" fill="black"/>
<path d="M148.178 23.5857C143.112 29.4523 141.645 37.319 144.445 42.7857C146.445 46.3857 150.712 45.9857 151.645 42.119C152.045 40.2523 154.578 36.119 157.112 32.7857C162.445 25.719 162.712 24.519 159.245 22.6523C155.245 20.6523 150.445 21.0523 148.178 23.5857Z" fill="black"/>
<path d="M111.512 24.919C110.312 25.319 110.312 26.3857 111.245 29.0523C115.378 39.719 103.778 88.119 93.5115 103.186C87.5115 111.852 83.7782 112.786 81.9115 105.986C79.6448 97.4523 84.7115 71.0523 92.0448 54.6523C94.9782 47.8523 95.1115 47.319 92.9782 45.719C89.6448 43.319 83.9115 43.5857 81.5115 46.2523C80.4448 47.5857 74.3115 58.6523 68.0448 70.919C58.7115 89.0523 44.8448 113.319 42.3115 115.852C39.7782 118.519 41.6448 111.986 48.3115 94.519C52.7115 83.1857 57.3782 68.6523 58.5782 62.119C60.7115 51.719 60.7115 49.719 58.9782 44.919C51.9115 24.6523 21.5115 32.519 9.11151 57.719C4.57818 67.1857 4.97818 74.919 10.4448 79.5857C15.6448 84.119 17.3782 83.4523 18.0448 76.919C19.5115 63.719 37.2448 39.1857 44.5782 40.2523C47.5115 40.6523 47.7782 41.1857 47.6448 48.6523C47.3782 57.719 43.3782 72.119 33.7782 98.519C30.0448 108.519 27.1115 117.452 27.1115 118.386C27.1115 121.719 34.0448 126.652 38.5782 126.652C44.7115 126.652 49.6448 120.386 62.4448 96.119C68.1782 85.0523 73.2448 76.2523 73.5115 76.519C73.7782 76.7857 73.1115 81.1857 72.0448 86.2523C69.2448 99.719 70.8448 108.652 77.1115 114.252C87.7782 124.252 99.6448 117.586 110.445 95.4523C121.912 72.119 127.645 42.119 122.578 32.2523C120.312 27.8523 114.312 23.8523 111.512 24.919Z" fill="black"/>
<path d="M137.992 145.2H166.408V150.512L153.608 163.76H159.368L166.408 174.192V184.432L161.032 190H137.992V185.392H158.984L161.288 183.024V174.704L156.872 168.432H147.72V163.248L160.776 149.808H137.992V145.2ZM181.615 145.2H199.663L204.719 152.816V184.688L199.663 190H181.615L176.431 182.32V150.512L181.615 145.2ZM181.551 151.92V174.576L199.535 155.952V153.52L197.039 149.808H183.535L181.551 151.92ZM181.551 181.68L184.047 185.392H197.615L199.535 183.28V162.544L181.551 181.232V181.68ZM214.742 145.2H241.814V149.808H219.862V158.448L220.246 159.088H236.054L243.158 169.456V184.432L237.782 190H214.742V185.392H235.67L237.974 183.024V170.032L233.622 163.76H217.878L214.742 159.088V145.2Z" fill="black"/>
</g>
</svg>
