<svg width="525" height="232" viewBox="0 0 525 232" fill="none" xmlns="http://www.w3.org/2000/svg">
<path d="M206.992 174.2H235.408V179.512L222.608 192.76H228.368L235.408 203.192V213.432L230.032 219H206.992V214.392H227.984L230.288 212.024V203.704L225.872 197.432H216.72V192.248L229.776 178.808H206.992V174.2ZM250.615 174.2H268.663L273.719 181.816V213.688L268.663 219H250.615L245.431 211.32V179.512L250.615 174.2ZM250.551 180.92V203.576L268.535 184.952V182.52L266.039 178.808H252.535L250.551 180.92ZM250.551 210.68L253.047 214.392H266.615L268.535 212.28V191.544L250.551 210.232V210.68ZM283.742 174.2H310.814V178.808H288.862V187.448L289.246 188.088H305.054L312.158 198.456V213.432L306.782 219H283.742V214.392H304.67L306.974 212.024V199.032L302.622 192.76H286.878L283.742 188.088V174.2Z" fill="black"/>
<path d="M307.843 2.04674C303.443 5.11341 299.577 14.1801 299.577 21.2467C299.577 26.0467 300.377 28.3134 302.91 31.1134C304.643 32.9801 306.643 34.5801 307.177 34.5801C307.71 34.5801 310.643 30.0467 313.443 24.5801C316.377 19.1134 320.377 12.9801 322.377 11.1134C326.91 6.84674 325.843 3.64674 319.443 1.38008C313.71 -0.619924 311.443 -0.48659 307.843 2.04674Z" fill="#9B111E"/>
<path d="M271.843 6.44677C269.71 7.7801 268.377 10.0468 260.11 26.5801C251.843 43.3801 249.977 47.7801 245.177 61.2468C238.643 79.2468 235.843 88.1801 234.777 93.9134C233.577 100.713 231.71 104.58 224.91 112.98C213.177 127.913 209.31 117.247 217.177 91.2468C220.643 79.3801 224.777 66.9801 227.043 61.9134C227.977 59.6468 230.377 54.0468 232.377 49.2468C236.91 38.0468 242.51 27.2468 246.777 20.9801C250.643 15.1134 250.377 13.5134 244.777 10.1801C238.377 6.5801 236.243 7.24677 231.177 14.8468C226.51 22.0468 214.243 46.9801 214.243 49.5134C214.243 50.1801 213.443 52.4468 212.377 54.3134C209.843 59.2468 205.177 71.6468 204.11 76.5801C203.577 78.7134 202.777 81.1134 202.243 81.9134C201.577 82.5801 200.643 85.6468 200.11 88.5801C197.443 102.98 189.443 117.913 182.643 121.113C179.043 122.847 175.577 120.047 175.577 115.38C175.577 105.78 186.643 74.8468 192.643 67.7801L195.977 63.7801L192.91 60.5801C188.377 55.7801 182.777 54.9801 178.91 58.5801C173.043 64.1801 163.177 87.3801 159.043 105.913C156.377 117.647 156.377 119.247 159.577 126.18C163.71 135.247 173.71 139.647 181.31 135.78C184.51 134.047 194.243 123.913 194.243 122.18C194.243 121.513 196.643 124.047 199.577 127.78C204.377 133.78 205.577 134.58 209.977 134.58C215.71 134.58 221.443 130.98 227.443 123.38C230.91 118.98 231.577 118.713 233.177 120.58C240.11 128.847 242.643 130.58 247.443 130.58C253.043 130.58 258.643 126.98 265.31 119.247L269.71 114.18L273.31 118.98C277.443 124.447 285.31 127.38 290.51 125.38C293.843 124.18 303.577 114.847 303.577 112.98C303.577 110.713 306.377 112.047 307.71 115.113C309.71 119.38 316.11 123.913 321.443 124.847C325.177 125.38 326.51 124.847 329.71 121.513C335.977 114.98 336.243 114.58 348.377 88.1801C353.31 77.3801 356.643 73.7801 355.043 80.8468C351.31 97.2468 353.843 108.18 362.377 112.18C367.31 114.713 369.71 113.913 375.843 108.18L379.443 104.847L380.777 108.18C382.51 112.847 387.177 115.913 392.377 115.913C396.377 115.913 396.777 115.513 400.777 104.713C403.177 98.4468 407.977 87.6468 411.71 80.5801C418.377 67.6468 432.377 46.5801 434.51 46.5801C436.643 46.5801 435.443 53.1134 430.91 66.0468C428.243 73.2468 425.843 82.5801 425.443 86.5801C424.643 93.2468 424.91 94.1801 427.977 96.9801C429.843 98.8468 433.177 100.313 435.71 100.313C439.443 100.58 440.377 99.9134 443.043 94.8468C444.777 91.6468 446.51 87.9134 446.91 86.5801C448.11 82.7134 460.51 60.1801 466.643 50.5801C478.777 31.7801 485.177 30.1801 476.377 48.1801C463.31 75.2468 461.977 88.4468 471.043 97.7801C477.043 103.913 481.043 104.847 487.71 101.78C492.91 99.5134 505.31 87.2468 509.977 80.0468C511.177 78.1801 512.51 76.3134 512.91 75.9134C513.71 75.1134 515.577 71.9134 521.177 61.9134C525.444 54.1801 525.977 49.2468 522.644 49.2468C521.044 49.2468 517.977 53.1134 514.244 59.5134C506.243 73.1134 493.443 86.5801 488.51 86.5801C485.31 86.5801 484.91 86.0468 484.91 81.9134C484.91 74.7134 489.443 62.0468 499.177 41.5134C503.177 33.3801 503.71 31.2468 502.51 28.5801C499.177 21.2468 488.243 18.0468 481.31 22.4468C474.643 26.7134 462.377 42.5801 453.31 58.8468C448.643 67.1134 444.91 73.1134 444.91 72.1801C444.91 71.3801 446.643 65.2468 448.91 58.5801C453.843 43.5134 453.977 39.5134 449.443 35.2468C443.843 30.0468 438.51 30.7134 432.11 37.5134C425.043 45.1134 406.243 73.2468 406.243 76.4468C406.243 76.8468 405.043 79.1134 403.443 81.5134L400.643 85.9134L401.577 80.5801C402.777 73.6468 412.643 48.4468 416.377 42.7134C419.177 38.5801 419.177 37.9134 417.31 35.1134C416.11 33.2468 413.443 31.6468 410.51 31.1134C406.377 30.3134 405.443 30.7134 402.777 33.9134C401.177 36.0468 399.043 39.2468 398.243 41.1134C397.31 42.9801 395.843 46.3134 394.777 48.5801C393.843 50.7134 390.51 60.3134 387.443 69.9134C381.577 88.1801 377.577 94.5801 371.977 94.5801C368.91 94.5801 368.377 93.2468 368.91 86.5801C369.177 82.3134 372.91 70.4468 374.51 68.3134C376.777 65.5134 374.377 61.6468 368.91 59.2468C364.377 57.2468 363.043 57.1134 360.377 58.5801C357.31 60.1801 350.243 68.8468 346.777 75.2468C345.977 76.7134 343.31 81.5134 340.91 85.9134C338.51 90.3134 335.71 94.8468 334.777 96.0468C333.71 97.1134 332.91 98.7134 332.91 99.3801C332.91 101.38 325.577 108.047 324.51 106.98C322.643 105.113 323.71 92.1801 326.243 84.5801C335.71 56.9801 351.977 39.1134 363.443 43.7801C365.71 44.8468 367.71 46.8468 368.11 48.7134C369.71 54.7134 374.243 51.7801 374.243 44.8468C374.11 34.4468 354.643 28.1801 342.51 34.5801C328.377 41.9134 313.31 64.5801 306.11 89.1134C302.11 102.713 296.11 110.98 290.91 110.313C288.51 109.913 288.243 108.98 288.51 100.58C288.777 89.1134 294.51 71.1134 301.71 59.5134L306.643 51.5134L303.043 48.3134C298.91 44.8468 292.777 44.3134 289.71 47.2468C287.977 49.1134 279.177 66.1801 275.443 75.2468C274.91 76.7134 272.91 83.5134 271.043 90.4468C269.177 97.2468 266.643 104.18 265.31 105.78C260.11 111.913 255.31 115.913 252.777 115.913C250.51 115.913 250.243 114.98 250.243 108.313C250.243 100.847 251.71 94.7134 257.71 76.5801C262.243 62.8468 264.777 55.7801 266.91 50.8468C267.977 48.5801 269.71 44.5801 270.777 42.1801C274.51 33.6468 279.977 23.1134 283.843 17.2468L287.843 11.3801L284.377 8.31344C280.777 5.24677 275.043 4.31344 271.843 6.44677Z" fill="#9B111E"/>
<path d="M193.444 17.3794C188.244 24.8461 187.177 38.1794 191.444 42.4461C193.044 44.0461 195.044 45.2461 196.11 45.2461C197.044 45.2461 199.844 41.3794 202.11 36.7128C204.51 32.0461 208.244 26.3128 210.377 24.0461C212.51 21.6461 214.244 18.9794 214.244 18.0461C214.244 15.1128 208.11 11.9128 202.51 11.9128C197.844 11.9128 196.777 12.5794 193.444 17.3794Z" fill="#9B111E"/>
<path d="M145.177 17.1131C144.11 17.7798 144.11 19.6464 145.043 23.9131C147.443 34.0464 144.777 54.7131 137.977 79.9131C136.51 85.3798 134.51 91.9131 133.443 94.3131C132.377 96.7131 131.577 99.3798 131.577 100.18C131.577 101.646 126.91 112.18 122.51 120.98C119.177 127.513 112.243 134.58 109.31 134.58C98.2435 134.58 104.377 87.9131 119.71 55.1131C121.043 52.0464 122.243 48.9798 122.243 48.1798C122.243 46.1798 115.177 42.5798 111.31 42.5798C105.843 42.7131 102.643 46.8464 91.5768 68.5798C77.5768 95.7798 72.6435 104.846 65.0435 117.646C61.7101 123.38 58.2435 129.38 57.3101 130.98C54.5101 136.046 49.1768 141.913 48.2435 140.98C47.8435 140.58 48.6435 137.513 50.1101 134.313C51.5768 131.113 53.1768 126.846 53.5768 124.846C54.1101 122.846 55.0435 120.846 55.7101 120.446C56.3768 120.046 56.9101 118.713 56.9101 117.513C56.9101 116.313 57.8435 113.646 58.7768 111.646C62.2435 105.113 70.3768 79.5131 72.3768 69.5131C76.7768 46.5798 73.4435 35.5131 60.3768 30.0464C39.9768 21.5131 9.31014 42.4464 1.57681 70.3131C-0.289857 76.8464 -0.423191 79.2464 0.776809 82.9798C2.77681 88.8464 7.71014 94.1798 11.9768 95.2464C15.1768 96.0464 15.3101 95.7798 16.7768 86.9798C18.3768 77.9131 28.9101 55.9131 31.7101 55.9131C32.3768 55.9131 32.9101 55.2464 32.9101 54.4464C32.9101 53.6464 35.1768 50.5798 37.9768 47.6464C46.7768 38.3131 55.5768 34.5798 57.4435 39.3798C60.6435 47.7798 53.7101 77.5131 39.3101 115.913C36.3768 123.78 35.8435 124.98 31.4435 135.513C28.9101 141.646 28.7768 143.113 30.2435 146.58C32.7768 152.846 37.7101 155.913 44.6435 155.913C54.7768 155.913 60.6435 148.18 81.0435 108.18C87.1768 96.1798 92.3768 86.9798 92.6435 87.7798C92.9101 88.5798 92.1101 93.7798 91.0435 99.3798C87.1768 118.046 88.5101 130.313 95.4435 137.646C100.51 143.246 105.177 145.246 112.91 145.246C119.31 145.246 120.243 144.846 127.043 138.446C133.71 132.046 143.443 117.38 145.577 110.313C146.11 108.58 147.043 106.58 147.577 105.913C149.043 104.18 154.777 86.8464 158.11 74.5798C163.177 55.6464 163.977 33.5131 159.843 25.6464C156.91 20.3131 148.243 15.1131 145.177 17.1131Z" fill="#9B111E"/>
</svg>
